<?xml version="1.0" standalone="no"?>
<!DOCTYPE svg PUBLIC "-//W3C//DTD SVG 20010904//EN"
 "http://www.w3.org/TR/2001/REC-SVG-20010904/DTD/svg10.dtd">
<svg version="1.0" xmlns="http://www.w3.org/2000/svg"
 width="1500.000000pt" height="1500.050905pt" viewBox="0 0 1500.000000 1500.050905"
 preserveAspectRatio="xMidYMid meet">
<metadata>
Created by potrace 1.12, written by Peter Selinger 2001-2015
</metadata>
<g transform="translate(0.000000,1500.000000) scale(0.100000,-0.100000)"
fill="#000000" stroke="none">
<path d="M0 7500 l0 -7500 2453 0 c1753 0 2456 3 2464 11 8 8 13 8 17 0 4 -6
18 -11 32 -11 17 0 24 5 24 20 0 14 -7 20 -24 20 -28 0 -56 27 -35 34 8 3 25
4 39 3 20 -2 27 -10 34 -39 l10 -38 118 0 c102 0 118 2 118 16 0 15 2 15 25 0
20 -13 54 -16 190 -15 157 0 165 1 165 20 0 12 7 19 20 19 14 0 20 -7 20 -21
0 -18 5 -20 48 -17 38 2 49 7 57 26 14 31 39 29 33 -3 l-5 -25 963 0 c870 0
964 2 964 16 0 8 -7 22 -15 30 -9 10 -15 34 -15 65 0 47 -17 82 -37 78 -4 -1
-21 4 -38 11 l-30 12 33 14 c30 13 32 17 32 64 0 36 -5 52 -18 59 -14 9 -13
10 11 11 21 0 27 5 27 21 0 16 5 19 20 15 11 -3 29 -9 40 -12 11 -3 18 -9 16
-13 -3 -4 1 -20 9 -35 16 -29 10 -68 -7 -44 -6 8 -7 1 -3 -21 9 -41 32 -65 79
-82 27 -10 43 -10 64 -2 58 23 68 26 52 14 -13 -9 -13 -11 1 -11 8 0 20 5 26
11 7 7 29 15 50 18 31 5 39 11 47 39 11 39 8 42 -42 49 -36 5 -40 3 -61 -31
-24 -38 -36 -42 -75 -25 -30 14 -40 55 -16 72 26 18 33 53 18 87 -7 17 -15 30
-18 31 -40 8 -159 3 -176 -7 -13 -8 -26 -9 -35 -3 -20 12 -67 11 -71 -2 -3 -8
-19 -8 -58 0 -77 16 -113 19 -125 12 -5 -3 -39 -6 -75 -6 l-66 0 4 28 c4 26
16 32 69 30 9 -1 13 19 14 61 2 136 1 133 26 128 13 -2 23 -8 23 -13 0 -20 43
-2 56 23 15 28 17 29 109 33 17 0 42 9 57 18 20 14 27 15 31 5 5 -14 39 0 41
17 2 18 -143 29 -188 14 -23 -7 -58 -12 -79 -10 -23 2 -48 -4 -64 -15 -19 -12
-28 -13 -31 -6 -2 7 -10 12 -18 12 -9 0 -12 5 -9 11 4 6 -2 13 -14 16 -28 7
-27 29 3 37 15 4 26 16 31 33 8 32 21 43 51 43 12 0 45 8 74 17 33 11 54 13
58 6 5 -6 36 -5 92 5 60 10 89 11 101 4 13 -8 21 -7 33 7 23 25 20 31 -16 30
-42 0 -76 5 -84 14 -4 4 -37 7 -73 7 -78 0 -101 11 -85 37 9 14 25 18 75 18
35 1 75 5 88 9 12 4 38 8 56 8 19 0 36 6 39 13 3 8 13 11 26 8 12 -3 25 0 29
6 4 7 18 13 29 14 30 2 28 23 -3 31 -19 5 -25 13 -25 33 0 14 7 31 16 37 8 6
16 27 17 47 2 30 6 35 28 37 15 1 33 -6 43 -17 10 -11 25 -16 41 -13 26 5 43
38 28 53 -5 5 -8 22 -5 38 3 22 11 31 31 36 l26 7 -24 9 c-14 6 -30 8 -37 5
-7 -3 -20 2 -31 9 -17 13 -17 15 -1 31 15 16 25 17 69 8 42 -9 52 -8 56 4 18
44 108 87 123 57 3 -5 -9 -11 -26 -13 -42 -4 -66 -44 -41 -69 15 -15 17 -15
26 9 9 24 15 27 69 31 15 1 33 7 40 14 8 7 18 10 24 7 18 -12 79 -9 90 3 14
17 33 16 48 -2 10 -12 10 -15 -3 -15 -8 0 -18 -7 -21 -17 -9 -22 32 -65 55
-58 21 7 30 -15 20 -52 -5 -18 -15 -29 -29 -31 -15 -2 -19 -8 -15 -19 5 -12 2
-15 -10 -10 -9 3 -17 2 -17 -3 0 -5 -9 -11 -19 -15 -31 -10 -15 -32 20 -27 21
3 34 -1 44 -14 11 -16 16 -17 37 -6 21 12 32 10 81 -12 56 -25 72 -48 41 -60
-25 -10 -34 -7 -34 9 0 21 -39 19 -95 -5 -49 -21 -101 -26 -107 -11 -7 19 -84
17 -91 -2 -3 -7 -3 -25 0 -40 7 -34 33 -35 64 -2 29 30 43 32 34 5 -10 -30 37
-46 70 -24 16 10 25 12 25 5 0 -6 7 -11 15 -11 8 0 15 -7 15 -15 0 -8 -5 -15
-11 -15 -6 0 -9 -12 -7 -27 2 -16 8 -27 16 -26 17 4 15 -22 -3 -37 -10 -9 -15
-9 -15 -1 0 22 -68 12 -94 -14 l-24 -24 27 -14 c24 -12 32 -12 52 -1 42 23 56
18 61 -23 5 -45 -12 -68 -45 -59 -12 3 -27 2 -32 -2 -10 -7 -29 -43 -39 -74
-3 -12 -16 -18 -36 -18 -41 0 -51 -27 -19 -51 34 -26 43 -24 63 17 15 32 20
36 45 31 37 -8 71 2 71 19 0 8 6 14 13 14 13 0 47 -35 47 -48 0 -15 -46 -52
-64 -52 -10 0 -31 -13 -48 -30 -21 -22 -39 -30 -65 -30 -26 0 -34 -4 -31 -16
2 -9 13 -23 26 -32 21 -14 22 -13 22 13 0 23 3 26 23 21 12 -3 29 -6 37 -6 8
0 20 -12 27 -26 11 -23 9 -29 -16 -57 -21 -22 -34 -28 -47 -22 -28 11 -105 9
-137 -4 -27 -11 -34 -34 -18 -59 13 -21 121 -2 121 21 0 16 26 -23 32 -49 6
-23 -26 -52 -37 -34 -10 15 -35 12 -35 -5 0 -12 -13 -15 -59 -15 -61 0 -82
-12 -77 -44 1 -9 13 -23 27 -29 35 -18 36 -52 3 -82 -27 -25 -27 -28 -16 -71
16 -59 15 -64 -7 -64 -14 0 -18 -5 -14 -20 5 -20 14 -20 3399 -20 l3394 0 0
7500 0 7500 -7500 0 -7500 0 0 -7500z m1340 1145 c1025 -8 1924 -14 2980 -20
531 -3 1177 -7 1435 -10 259 -3 1406 -7 2550 -10 1144 -3 2177 -8 2295 -10
218 -6 417 -11 705 -20 88 -2 295 -7 460 -10 165 -4 326 -8 359 -10 32 -3 255
-7 495 -10 240 -3 569 -8 731 -11 329 -7 418 -7 440 -2 13 3 15 -146 15 -1258
0 -1215 -1 -1261 -19 -1289 -16 -24 -19 -53 -22 -169 -2 -78 -8 -213 -14 -301
-25 -409 -32 -552 -32 -708 0 -92 -4 -169 -8 -172 -12 -7 -18 327 -10 555 5
137 4 220 -2 227 -7 8 -8 114 -3 290 7 301 11 2681 4 2688 -14 14 -1219 19
-2139 9 -797 -8 -869 -9 -876 -17 -4 -4 52 -8 124 -8 73 -1 137 -3 142 -4 6
-1 24 -3 42 -4 17 0 29 -4 26 -7 -5 -4 -370 -9 -415 -5 -7 1 -13 10 -13 21 0
11 -5 20 -11 20 -6 0 -13 -9 -16 -20 -6 -23 -23 -23 -598 -20 -154 1 -289 1
-300 0 -51 -6 -406 -11 -1030 -15 -374 -2 -693 -7 -710 -11 -94 -19 -65 -32
85 -38 338 -15 679 -26 686 -24 9 2 182 -9 274 -17 25 -2 329 -7 675 -10 596
-5 1507 -22 1632 -30 32 -2 218 -7 413 -10 195 -4 393 -8 440 -10 47 -2 156
-4 243 -4 132 -1 157 -3 157 -16 0 -8 -8 -15 -17 -16 -100 -4 -1440 -14 -2193
-15 -1279 -3 -2053 -13 -2062 -27 -4 -7 -11 -7 -22 2 -12 10 -188 13 -878 11
-475 -1 -952 -2 -1061 -2 -108 0 -199 -4 -202 -7 -2 -4 -287 -8 -633 -9 -560
-2 -634 -4 -668 -19 -35 -15 -160 -16 -1364 -20 -729 -2 -1547 -3 -1817 -3
-271 0 -493 -3 -493 -7 -1 -5 -3 -779 -5 -1722 -3 -942 -8 -1887 -12 -2100 -3
-212 -6 -397 -5 -411 5 -116 -1 -232 -14 -277 -4 -14 -2 -23 5 -23 14 0 14
-32 -1 -65 -9 -19 -9 -28 0 -37 16 -16 15 -43 -3 -58 -19 -16 -20 -54 -1 -47
9 4 13 0 12 -11 -2 -9 -8 -18 -14 -20 -7 -2 -12 -15 -12 -29 0 -16 4 -23 13
-20 17 6 17 -37 -1 -55 -14 -14 -16 -44 -2 -53 6 -4 5 -13 -2 -25 -9 -13 -9
-28 -1 -53 6 -20 7 -41 2 -48 -15 -23 -11 -127 5 -136 9 -5 12 -19 9 -40 -3
-18 -9 -30 -14 -27 -5 3 -9 -2 -9 -10 0 -10 6 -13 15 -10 24 10 18 -20 -10
-50 -14 -15 -23 -32 -19 -37 3 -6 29 -9 57 -8 29 1 320 -2 647 -6 327 -4 755
-8 950 -10 267 -3 360 -7 379 -17 19 -10 25 -10 28 -1 3 7 14 13 24 13 11 0
17 -4 14 -10 -11 -18 57 -11 71 8 10 14 15 15 25 5 16 -16 55 -17 64 -3 5 8
12 7 22 -2 17 -13 111 -15 933 -18 190 -1 354 -2 365 -2 378 -5 825 -2 844 6
18 8 25 8 28 -1 3 -8 24 -11 66 -7 102 7 1100 11 1156 4 37 -5 57 -3 72 8 11
8 27 11 37 7 25 -11 145 -12 159 -2 7 5 20 4 32 -2 15 -8 23 -7 35 4 20 20 56
19 115 -4 34 -13 54 -15 66 -9 10 6 124 9 273 8 142 -1 266 -2 277 -2 219 1
488 0 590 -2 72 -2 330 -7 575 -10 245 -4 519 -11 610 -17 91 -5 255 -9 365
-8 110 1 212 -2 226 -6 16 -4 30 -2 34 5 5 8 10 8 20 0 7 -6 37 -12 66 -13 30
-1 57 -6 60 -10 4 -5 16 -4 28 2 12 7 43 12 69 11 26 0 82 2 124 6 73 5 79 4
104 -20 23 -20 41 -25 108 -31 45 -3 95 -5 111 -4 17 1 102 -1 190 -4 106 -4
173 -2 198 5 28 8 47 8 75 -1 20 -6 154 -16 297 -21 304 -11 731 -30 795 -34
25 -2 166 -5 313 -6 147 -2 270 -7 273 -12 3 -5 11 -5 17 0 7 5 69 5 142 1 72
-4 244 -8 383 -8 161 -1 252 -5 252 -11 0 -5 -21 -11 -47 -12 -27 -1 -57 -3
-68 -4 -11 -1 -119 -2 -239 -3 -121 -1 -217 -3 -215 -5 3 -3 91 -6 197 -7 107
-2 195 -6 198 -10 7 -12 -147 -20 -361 -18 -115 1 -365 -2 -555 -6 -190 -4
-356 -7 -369 -6 -14 0 -28 -4 -32 -10 -4 -7 -12 -8 -20 -3 -8 5 -18 9 -24 10
-5 1 -17 3 -25 5 -8 2 -14 -2 -15 -8 0 -7 -3 -13 -7 -13 -5 0 -17 0 -29 0 -11
0 -17 5 -14 10 11 18 -37 11 -51 -7 -11 -16 -29 -18 -139 -17 -77 0 -129 5
-133 11 -4 6 -27 11 -52 11 -28 1 -39 -2 -31 -8 8 -4 11 -15 8 -24 -5 -13 -26
-16 -117 -18 -60 -1 -122 -2 -137 -3 -77 -6 -334 -15 -548 -21 -368 -9 -417
-11 -605 -23 -96 -5 -265 -11 -375 -13 -203 -2 -225 -4 -225 -18 0 -4 81 -9
179 -9 99 -1 224 -4 278 -6 232 -10 373 -15 603 -20 135 -3 351 -10 480 -16
129 -5 287 -9 350 -9 194 2 230 0 230 -9 0 -14 -112 -20 -445 -27 -230 -5
-314 -10 -325 -19 -25 -21 -64 -24 -400 -30 -392 -7 -441 -10 -449 -23 -4 -6
-31 -7 -76 -2 -38 4 -75 3 -81 -1 -18 -14 -352 -10 -357 4 -3 9 -7 9 -19 -1
-12 -9 -72 -12 -237 -12 -121 1 -221 5 -221 9 0 15 -41 20 -46 6 -4 -10 -86
-13 -419 -14 -270 0 -416 3 -421 10 -4 6 -11 5 -21 -3 -13 -11 -329 -14 -1652
-16 -1895 -3 -2758 -2 -2821 4 -25 2 -621 7 -1325 9 -883 4 -1288 9 -1307 16
-22 9 -30 8 -43 -5 -13 -12 -26 -14 -58 -9 -23 4 -171 8 -329 8 -281 0 -288 1
-290 20 0 11 -2 34 -4 50 -1 17 -2 568 -2 1225 1 657 1 1456 1 1775 0 319 0
630 0 690 0 152 0 165 -2 205 -1 19 -2 42 -1 50 1 8 2 177 2 375 0 198 0 392
1 430 0 39 0 120 -1 180 -5 350 4 1542 12 1553 6 10 22 12 55 8 25 -3 345 -8
711 -11z m9008 -312 c-16 -2 -40 -2 -55 0 -16 2 -3 4 27 4 30 0 43 -2 28 -4z
m2602 -158 c337 -7 450 -12 459 -20 3 -4 -185 -4 -417 -2 -232 2 -425 7 -428
10 -15 15 11 27 49 23 23 -3 175 -8 337 -11z m513 -39 c3 -8 6 -159 6 -335 0
-267 -2 -321 -14 -321 -19 0 -29 19 -16 33 6 8 6 18 1 27 -5 8 -9 148 -10 312
0 251 2 298 14 298 7 0 16 -6 19 -14z m3 -1458 c-3 -425 -6 -891 -6 -1035 1
-158 -3 -264 -9 -267 -6 -4 -11 30 -13 86 -2 78 0 1580 3 1658 1 14 -2 87 -6
163 -7 147 -5 167 21 167 15 0 16 -59 10 -772z m-5103 595 c-10 -15 -23 -34
-30 -41 -7 -7 -13 -17 -13 -21 0 -10 -94 -174 -121 -213 -11 -14 -19 -29 -19
-33 0 -9 -121 -182 -154 -220 -14 -16 -26 -33 -26 -36 0 -3 -37 -56 -82 -117
-46 -61 -118 -159 -161 -219 -69 -97 -252 -341 -275 -369 -14 -16 -195 -253
-212 -278 -37 -53 -190 -253 -237 -309 -17 -22 -29 -45 -26 -53 3 -8 73 -83
157 -167 203 -206 475 -491 577 -606 153 -171 166 -184 182 -178 13 5 16 61
20 384 3 208 6 383 7 388 0 6 -3 102 -6 215 -4 113 -6 228 -5 255 0 28 2 233
3 456 l3 407 215 -3 c118 -2 288 -4 378 -5 160 -3 326 -18 427 -41 52 -12 181
-76 226 -113 14 -12 40 -32 59 -46 170 -128 276 -374 263 -615 -3 -61 -12
-122 -24 -157 -11 -32 -18 -62 -14 -68 3 -5 1 -17 -4 -27 -21 -38 -41 -87 -41
-98 0 -22 -100 -161 -157 -218 -78 -79 -196 -161 -268 -187 -122 -44 -191 -54
-377 -55 l-178 0 -1 -380 c0 -209 -2 -492 -5 -630 -2 -137 -5 -330 -6 -427 -2
-98 -6 -178 -9 -178 -3 0 -35 32 -70 70 -35 39 -80 81 -99 94 -31 21 -85 73
-190 180 -19 20 -38 36 -41 36 -4 0 -17 16 -30 35 -13 19 -27 35 -31 35 -4 0
-31 25 -60 56 -29 31 -71 73 -92 93 -22 20 -49 47 -60 60 -12 13 -30 31 -40
40 -39 32 -116 112 -116 120 0 5 -9 11 -21 14 -11 3 -23 15 -26 26 -3 11 -18
24 -34 30 -16 5 -29 15 -29 20 0 21 -3 26 -21 39 -11 7 -24 10 -29 7 -6 -3
-10 2 -10 12 -1 19 -22 53 -34 53 -4 0 -4 -4 -1 -10 3 -5 2 -10 -4 -10 -6 0
-15 9 -21 20 -6 11 -16 20 -23 20 -14 1 -52 50 -39 50 6 0 12 -7 16 -15 3 -8
10 -15 15 -15 22 0 -3 31 -29 37 -30 5 -90 57 -90 77 0 6 -14 19 -31 28 -19
11 -29 24 -27 35 2 10 -2 17 -8 16 -12 -2 -164 151 -164 165 0 4 -53 61 -117
127 -64 66 -122 130 -127 142 -6 12 -35 47 -64 78 -29 31 -60 68 -69 81 -8 13
-19 24 -24 24 -5 0 -9 -193 -9 -444 0 -347 -3 -445 -12 -447 -7 -2 -120 -3
-251 -1 l-237 3 6 372 c4 205 7 719 8 1142 l1 770 230 -3 c135 -2 234 -7 240
-13 6 -6 11 -179 13 -464 3 -424 8 -494 29 -438 4 9 13 24 20 32 8 9 61 75
119 146 57 72 131 164 164 205 33 41 91 113 128 160 37 47 76 95 87 106 11 12
42 49 69 83 28 34 72 80 100 104 50 42 51 42 133 43 87 0 123 16 123 54 0 10
15 25 33 35 17 9 44 23 59 31 15 8 47 35 72 59 24 25 51 45 60 45 8 0 17 8 20
18 3 9 19 26 36 37 17 11 33 28 36 38 3 9 11 17 19 17 16 0 215 191 215 207 0
6 10 17 23 26 12 8 74 66 137 130 63 63 116 113 118 112 2 -2 -5 -16 -15 -32z
m1873 -650 c4 -10 12 -32 20 -50 8 -17 14 -37 14 -45 0 -8 4 -18 8 -23 5 -6
19 -39 32 -75 13 -36 29 -76 35 -90 14 -29 63 -134 94 -201 12 -25 21 -50 21
-56 0 -6 3 -13 8 -15 4 -1 47 -82 95 -178 49 -96 92 -182 97 -190 5 -8 18 -35
29 -60 12 -25 30 -58 41 -75 11 -16 20 -35 20 -42 0 -6 16 -39 35 -73 19 -34
38 -73 41 -86 4 -13 11 -28 18 -32 6 -4 20 -27 31 -52 10 -25 25 -52 32 -61 7
-8 13 -20 13 -25 0 -4 15 -40 34 -79 18 -38 38 -81 45 -95 6 -14 15 -32 20
-40 24 -40 61 -119 61 -130 0 -6 9 -23 20 -37 11 -14 20 -34 20 -44 0 -16 13
-47 47 -109 7 -14 23 -45 35 -68 17 -36 23 -41 30 -28 5 9 6 21 3 26 -11 18
-13 120 -20 1018 -7 824 -7 872 10 866 13 -5 16 -3 13 12 -2 10 -10 18 -17 16
-24 -5 -5 22 21 29 14 4 113 7 221 8 214 2 207 4 207 -61 0 -41 8 -32 11 13 2
26 8 35 21 36 20 2 20 27 18 -584 -1 -205 3 -343 8 -343 10 0 62 63 62 75 0 8
39 63 68 95 12 13 22 30 22 36 0 6 7 17 16 25 9 7 43 47 77 88 33 42 64 78 69
79 4 2 8 9 8 16 0 21 127 149 139 141 8 -4 12 -2 10 6 -1 8 -1 21 0 29 1 12 3
12 10 2 11 -17 65 53 57 74 -3 8 -2 13 3 10 13 -8 67 45 82 81 7 17 17 29 21
27 10 -6 47 36 48 53 0 6 15 21 34 32 19 12 37 28 40 36 9 24 60 19 71 -7 11
-26 65 -39 65 -16 0 10 3 9 10 -2 7 -12 12 -11 30 5 17 15 25 17 39 8 10 -7
28 -9 40 -6 15 4 21 1 21 -10 0 -9 9 -21 19 -27 26 -13 52 -13 29 1 -35 20
-20 35 32 35 41 -1 50 -4 52 -20 4 -26 28 -33 28 -8 0 25 25 35 40 16 10 -11
9 -18 -1 -31 -13 -15 -12 -15 8 -3 16 11 19 17 11 27 -16 20 17 28 42 10 17
-12 19 -17 8 -24 -7 -4 -39 -42 -71 -83 -133 -174 -162 -211 -265 -334 -59
-70 -107 -133 -107 -140 0 -6 -7 -18 -16 -26 -15 -14 -259 -297 -352 -409 -21
-25 -47 -56 -58 -69 -21 -25 -18 -65 5 -56 12 5 96 -95 96 -115 0 -5 7 -11 15
-15 8 -3 15 -17 15 -30 0 -18 4 -24 14 -20 8 3 22 -6 33 -21 10 -15 33 -45 52
-66 27 -31 31 -42 22 -53 -9 -11 -10 -20 -1 -35 6 -12 14 -21 19 -21 4 0 12
-10 18 -23 18 -38 167 -200 176 -191 3 3 8 -9 12 -26 4 -17 15 -34 25 -38 24
-9 110 -90 110 -103 0 -6 14 -25 31 -42 28 -27 31 -36 26 -75 -3 -31 -2 -41 6
-33 15 15 44 14 49 -1 10 -28 -58 -61 -68 -34 -9 23 -24 20 -24 -4 0 -11 7
-20 15 -20 8 0 15 -4 15 -10 0 -5 -4 -10 -10 -10 -17 0 -60 23 -60 33 0 5 -11
22 -24 38 -22 26 -24 26 -29 9 -6 -25 -16 -25 -46 1 -17 14 -21 23 -14 30 12
12 5 49 -9 49 -5 0 -6 9 -3 20 4 12 1 28 -6 36 -10 13 -13 12 -25 -4 -17 -25
-29 -92 -16 -92 6 0 14 5 18 11 4 7 10 7 16 1 6 -6 7 -16 2 -24 -5 -7 -8 -22
-9 -33 0 -17 -7 -20 -45 -20 l-45 0 2 -36 c2 -36 1 -36 -22 -25 -14 6 -25 14
-25 19 0 4 -5 7 -11 7 -14 0 -48 41 -49 58 0 6 -5 12 -11 12 -6 0 -42 33 -79
73 -38 39 -77 79 -86 87 -10 8 -31 30 -48 48 -16 17 -34 32 -39 32 -6 0 -23
14 -38 31 -15 17 -32 28 -38 25 -10 -7 -24 10 -27 32 -1 7 -15 25 -31 40 -15
15 -44 47 -63 70 -82 100 -120 137 -120 119 0 -10 -5 -15 -10 -12 -8 5 -7 11
1 21 9 11 5 21 -17 48 -16 19 -35 35 -41 35 -7 1 -13 5 -13 11 0 18 -43 51
-54 40 -6 -6 -5 -14 3 -24 9 -10 13 -128 16 -443 2 -235 7 -436 10 -445 6 -14
2 -18 -17 -18 -13 0 -30 -6 -37 -12 -10 -11 -15 -9 -26 6 -8 10 -16 23 -17 28
-2 5 -16 6 -32 2 -20 -5 -24 -9 -14 -15 9 -6 2 -9 -22 -10 -72 -3 -145 3 -148
12 -5 12 -32 12 -32 0 0 -5 -9 -12 -20 -16 -24 -8 -182 13 -194 25 -6 6 -15 5
-24 -3 -10 -7 -60 -12 -144 -14 l-129 -2 -27 43 c-15 24 -58 106 -97 184 -38
78 -76 144 -83 147 -7 2 -22 0 -32 -5 -12 -6 -77 -6 -190 0 -149 9 -174 8
-195 -6 -14 -9 -26 -11 -29 -5 -3 5 0 11 6 14 7 2 -14 3 -47 2 -33 -2 -62 -4
-65 -5 -3 -1 -9 -1 -15 0 -5 1 -61 4 -124 7 -102 5 -113 3 -108 -11 5 -12 1
-16 -15 -16 -17 0 -18 2 -8 15 11 13 6 15 -32 15 -49 0 -40 15 -110 -175 -16
-44 -38 -99 -49 -122 -10 -24 -19 -47 -19 -52 0 -15 -22 -17 -115 -11 l-90 6
-132 -131 c-170 -166 -148 -145 -291 -290 -68 -69 -127 -125 -133 -125 -5 0
-28 -17 -50 -37 -23 -21 -47 -42 -55 -46 -8 -4 -14 -16 -14 -25 0 -9 -9 -23
-20 -30 -17 -10 -21 -10 -27 4 -3 9 -1 19 4 23 6 3 16 24 23 46 12 36 56 123
70 135 3 3 16 27 30 55 14 27 37 67 51 90 44 66 292 551 362 705 11 25 34 74
50 110 17 36 36 79 43 95 7 17 36 80 65 140 28 61 54 119 59 130 51 122 84
203 91 215 55 114 111 237 174 385 42 99 88 204 101 233 13 29 24 56 24 61 0
5 7 14 15 21 8 7 15 20 15 30 0 14 69 166 111 243 6 10 20 37 32 60 12 23 38
69 59 102 21 33 43 71 50 85 21 45 71 120 80 120 5 0 11 -8 14 -17z m-7233
-114 c27 -5 52 -7 57 -4 5 3 66 -4 137 -15 188 -30 304 -93 426 -232 100 -114
131 -196 148 -381 12 -134 1 -238 -42 -394 -34 -129 -80 -222 -135 -278 -41
-42 -153 -115 -177 -115 -7 0 -18 -4 -26 -9 -11 -7 3 -27 63 -88 43 -43 75
-72 72 -65 -5 7 -1 12 9 12 9 0 15 -6 12 -12 -7 -20 23 -74 33 -58 10 15 30 4
30 -16 0 -9 -5 -12 -11 -8 -7 4 -7 -1 1 -16 7 -14 18 -20 29 -17 12 3 42 -22
97 -81 43 -47 130 -135 193 -196 63 -61 124 -122 135 -135 12 -14 45 -50 73
-80 29 -31 53 -59 53 -62 0 -4 -48 -5 -107 -3 -60 3 -199 6 -309 7 l-202 3
-38 36 c-92 85 -120 108 -131 108 -16 0 -32 31 -26 50 4 13 3 13 -5 1 -8 -12
-42 17 -161 140 -83 85 -164 166 -179 182 -15 15 -29 37 -32 50 -3 12 -15 23
-27 25 -11 2 -25 14 -31 28 -7 13 -16 24 -21 24 -5 0 -25 24 -45 54 -33 50
-77 78 -95 61 -3 -4 -8 -167 -11 -363 l-5 -357 -70 -5 c-109 -8 -408 4 -429
16 -18 11 -19 25 -16 285 1 151 2 291 1 312 0 26 3 36 11 31 8 -5 9 2 4 22
-17 68 -18 84 -7 84 8 0 7 6 -1 20 -11 17 -10 26 5 51 16 28 16 34 2 62 -11
22 -12 34 -4 43 6 7 7 19 3 26 -14 23 -11 87 4 93 12 4 11 9 -3 31 -13 20 -14
28 -4 40 8 10 8 18 1 27 -11 13 -10 29 3 60 4 10 5 36 2 57 -3 22 -1 43 4 46
6 4 6 10 0 18 -6 7 -8 22 -4 34 3 12 -1 29 -8 38 -10 12 -10 17 -1 23 7 4 12
25 12 47 0 21 2 107 4 189 2 92 0 155 -6 162 -6 7 -7 21 -3 30 14 34 13 152
-1 179 -16 31 -18 48 -4 39 6 -4 10 18 10 59 0 53 -3 65 -17 69 -11 2 -2 8 25
16 29 8 127 11 318 10 151 -1 277 1 280 4 6 6 68 0 137 -14z m2232 -59 c109
-35 265 -106 265 -121 0 -5 7 -9 15 -9 8 0 23 -8 33 -17 10 -10 33 -30 52 -44
45 -34 140 -128 140 -139 0 -4 12 -19 28 -32 30 -26 103 -119 122 -158 7 -14
16 -27 20 -30 21 -16 84 -173 110 -275 71 -284 -49 -726 -266 -978 -57 -65
-203 -197 -220 -197 -4 0 -15 -6 -23 -14 -22 -18 -126 -70 -166 -82 -218 -67
-314 -84 -480 -84 -233 0 -427 65 -605 201 -252 192 -390 414 -430 691 -14 95
-9 361 8 413 6 17 21 64 33 105 49 157 151 321 289 463 190 198 302 258 605
327 62 15 112 18 225 16 131 -3 155 -6 245 -36z m8216 -1261 l-8 -134 -1 150
c-1 96 2 144 8 134 5 -9 6 -70 1 -150z m-891 -308 c39 -48 46 -61 33 -61 -9 0
-40 34 -122 131 -17 20 -31 42 -31 49 0 13 62 -49 120 -119z m893 29 c-7 -28
-13 -25 -13 6 0 14 4 23 9 20 5 -3 7 -15 4 -26z m7 -120 c0 -10 -4 -22 -10
-25 -6 -4 -10 7 -10 25 0 18 4 29 10 25 6 -3 10 -15 10 -25z m-795 -38 c-6 -7
-35 18 -35 31 0 5 9 2 20 -8 11 -10 18 -20 15 -23z m789 -219 c-2 -80 -6 -148
-9 -151 -3 -3 -5 69 -5 159 0 90 4 158 9 151 4 -7 6 -79 5 -159z m-1306 135
c14 -14 16 -28 2 -28 -5 0 -14 9 -20 20 -12 22 -1 27 18 8z m79 -83 c24 -25
43 -50 43 -55 0 -6 5 -10 10 -10 6 0 10 -5 10 -12 0 -7 -27 14 -60 47 -56 55
-70 75 -53 75 3 0 26 -20 50 -45z m105 -112 c29 -26 22 -47 -7 -21 -24 21 -32
38 -18 38 3 0 15 -7 25 -17z m58 -68 c0 -8 -4 -15 -10 -15 -5 0 -10 7 -10 15
0 8 5 15 10 15 6 0 10 -7 10 -15z m280 -16 c0 -5 -9 -9 -19 -9 -22 0 -36 27
-18 33 13 5 37 -11 37 -24z m-220 -54 c0 -3 -11 2 -25 11 -14 9 -25 24 -25 33
0 12 6 9 25 -11 14 -15 25 -30 25 -33z m133 41 c3 -8 16 -16 28 -18 24 -3 39
-48 16 -48 -20 0 -58 30 -52 41 4 5 -1 9 -9 9 -10 0 -13 6 -10 15 8 19 20 19
27 1z m145 -26 c-7 -10 -16 -16 -20 -14 -12 8 -9 32 5 37 20 7 27 -3 15 -23z
m727 -300 c1 -148 -2 -270 -7 -270 -9 0 -9 -3 -9 255 0 295 0 299 8 292 3 -4
7 -128 8 -277z m-880 260 c42 -16 94 -80 65 -80 -5 0 -10 6 -10 14 0 9 -7 12
-20 9 -12 -3 -22 1 -26 11 -3 9 -15 16 -25 16 -10 0 -19 2 -19 4 0 2 -3 11 -6
20 -7 18 4 20 41 6z m457 -25 c0 -5 -5 -11 -11 -13 -6 -2 -11 4 -11 13 0 9 5
15 11 13 6 -2 11 -8 11 -13z m-515 -21 c-9 -9 -28 6 -21 18 4 6 10 6 17 -1 6
-6 8 -13 4 -17z m573 -29 c0 -6 -11 -8 -23 -7 -27 5 -31 8 -23 21 8 12 48 -1
46 -14z m357 -837 c-1 -40 -3 -10 -3 67 0 77 1 110 3 73 2 -37 2 -100 0 -140z
m0 -140 c-2 -13 -4 -3 -4 22 0 25 2 35 4 23 2 -13 2 -33 0 -45z m-2643 -627
c7 -11 -60 -22 -82 -13 -14 5 -13 7 8 13 36 10 68 10 74 0z m406 -511 c12 -8
9 -10 -12 -10 -16 0 -28 5 -28 10 0 13 20 13 40 0z m-7880 -126 c0 -2 -13 -4
-30 -4 -16 0 -30 4 -30 8 0 5 14 7 30 4 17 -2 30 -6 30 -8z m-440 -4 c0 -5 -6
-10 -14 -10 -8 0 -18 5 -21 10 -3 6 3 10 14 10 12 0 21 -4 21 -10z m3700 -24
c0 -6 6 -4 13 5 10 14 27 16 86 13 40 -2 79 -9 87 -15 10 -8 17 -7 29 5 19 18
31 20 39 7 4 -5 28 -7 54 -5 26 3 54 4 62 4 8 -1 33 -1 54 -1 28 1 43 -5 53
-19 18 -25 24 -25 53 0 17 15 27 17 41 9 13 -6 31 -7 54 0 21 6 37 6 41 0 8
-13 52 -11 56 2 2 7 13 9 26 5 12 -4 20 -11 17 -15 -2 -5 7 -6 20 -3 14 2 25
8 25 13 0 15 40 10 46 -6 8 -21 28 -19 49 5 19 21 41 28 29 8 -5 -8 8 -10 49
-5 43 4 57 2 61 -9 7 -19 46 -18 46 1 0 17 26 20 35 4 5 -6 22 -8 47 -4 33 6
44 3 64 -16 l25 -23 6 22 c3 14 13 22 27 23 11 0 55 1 96 2 41 1 84 6 94 11
14 7 17 6 12 -2 -5 -9 13 -12 66 -14 40 0 80 0 88 1 16 3 33 3 112 0 44 -2 48
-4 44 -25 -5 -26 7 -39 29 -30 11 4 13 11 5 31 -8 21 -7 25 9 25 38 0 51 -10
40 -32 -7 -14 -7 -23 2 -34 17 -21 29 -17 29 11 0 18 5 25 19 25 11 0 23 5 26
10 7 11 54 13 79 4 9 -3 16 -14 16 -24 0 -27 20 -35 27 -11 3 12 9 21 14 21 5
0 12 0 17 0 4 0 7 -8 7 -17 0 -10 15 -21 40 -29 22 -6 32 -12 23 -13 -29 -2
-32 -2 -50 -12 -10 -6 -33 -6 -58 0 -22 5 -40 7 -40 6 0 -17 16 -35 31 -35 12
0 19 -7 19 -19 0 -16 8 -20 42 -23 55 -4 60 -24 9 -39 -34 -10 -44 -9 -65 4
-13 9 -23 24 -22 33 2 33 -21 24 -53 -21 -19 -27 -40 -45 -52 -45 -19 0 -23
17 -20 95 2 49 -12 62 -52 47 -18 -7 -46 -12 -61 -12 -17 0 -25 -4 -20 -11 4
-6 20 -8 39 -5 23 5 39 1 56 -13 l23 -18 -29 -26 c-33 -29 -71 -36 -62 -13 9
22 -41 30 -69 11 -25 -16 -24 -35 2 -35 8 0 14 7 14 15 0 8 7 15 15 15 8 0 15
-7 15 -15 0 -10 10 -15 29 -15 17 0 32 -4 35 -9 4 -5 -25 -9 -66 -10 -39 0
-76 -5 -81 -10 -11 -11 -76 -3 -94 12 -12 8 -17 3 -15 -14 2 -14 -71 -21 -79
-8 -6 10 -16 10 -47 1 -45 -14 -85 -15 -96 -4 -4 4 -60 8 -124 9 -74 1 -111
-2 -102 -8 11 -6 2 -9 -27 -9 -36 0 -43 -3 -43 -20 0 -15 7 -20 25 -20 14 0
25 -4 25 -10 0 -16 -47 -12 -54 5 -3 8 -18 20 -33 26 l-28 11 30 24 c17 13 36
24 43 24 7 0 27 7 43 16 30 15 30 16 13 35 -11 12 -24 17 -33 13 -9 -4 -24 -6
-33 -6 -10 0 -18 -5 -18 -12 0 -7 -6 -20 -13 -30 -10 -14 -21 -16 -51 -11 -34
7 -37 10 -31 32 8 35 -3 45 -26 22 -13 -13 -19 -29 -16 -41 7 -27 -16 -33 -47
-13 -14 9 -29 14 -34 11 -18 -11 -154 -9 -161 3 -5 8 -13 6 -25 -8 -10 -11
-35 -22 -56 -26 -21 -4 -41 -13 -44 -21 -4 -11 -26 -13 -118 -7 -62 4 -139 6
-170 5 -31 -1 -59 2 -62 7 -8 12 75 21 166 18 42 -2 74 1 72 5 -3 4 9 8 26 8
20 0 29 4 24 11 -3 6 -20 9 -38 6 -17 -2 -40 2 -53 10 -15 10 -37 13 -72 9
-28 -3 -53 -1 -56 4 -9 15 -38 12 -32 -3 7 -19 -74 -37 -134 -30 -27 3 -55 0
-68 -7 -17 -9 -26 -9 -38 1 -8 8 -39 13 -69 13 -44 -1 -52 1 -43 12 6 7 8 23
4 34 l-7 22 -19 -21 c-11 -12 -24 -21 -29 -21 -6 0 -10 -6 -10 -14 0 -9 -15
-15 -45 -18 -54 -4 -65 -1 -65 18 0 8 -10 14 -26 14 -15 0 -32 7 -38 16 -13
18 -46 9 -46 -12 0 -14 17 -18 55 -14 15 1 17 -1 9 -10 -7 -7 -41 -10 -95 -8
-69 3 -78 5 -51 12 28 7 46 34 25 37 -91 10 -123 8 -123 -6 0 -9 15 -21 32
-27 l33 -12 -27 -7 c-33 -9 -108 0 -108 12 0 5 5 9 10 9 6 0 10 9 10 21 0 15
-5 19 -15 15 -8 -3 -26 0 -40 6 -19 8 -27 7 -40 -6 -15 -15 -14 -17 10 -26 14
-5 33 -10 41 -10 17 0 19 -19 2 -21 -7 -1 -24 -3 -38 -4 -32 -4 -110 16 -110
28 0 5 7 6 16 3 9 -3 25 1 37 9 12 8 16 15 9 15 -6 0 -12 5 -12 10 0 6 11 10
24 10 16 0 27 7 31 20 7 23 25 27 25 5 0 -8 4 -15 9 -15 6 0 6 12 0 30 -11 29
-52 45 -46 18 1 -7 -5 -11 -13 -9 -36 8 -100 9 -105 0 -9 -14 -47 10 -41 27 4
10 -2 14 -22 14 -35 0 -82 21 -82 37 0 20 17 24 33 8 17 -17 82 -20 92 -5 4 6
13 5 26 -3 17 -10 22 -9 39 13 l18 24 21 -24 c17 -21 23 -23 39 -13 11 7 40
10 65 7 33 -3 46 0 51 11 6 18 36 9 36 -11 0 -20 56 -18 64 2 6 14 17 16 80
10 48 -4 77 -3 81 4 9 15 113 9 119 -7 7 -16 47 -17 44 -1 -2 9 16 13 60 14
34 1 65 4 68 7 9 9 34 -4 34 -17z m-1313 -27 c-4 -15 -1 -18 16 -15 79 16 97
17 103 1 4 -8 1 -22 -6 -30 -11 -13 -7 -15 28 -15 44 0 122 36 122 57 0 17
-11 16 -38 -3 -30 -21 -67 -15 -67 11 0 17 6 19 53 16 47 -2 139 -30 104 -31
-20 0 -3 -20 18 -20 10 0 21 -7 24 -16 5 -13 0 -15 -34 -9 -49 8 -80 -1 -80
-25 0 -20 -26 -35 -35 -20 -4 6 -30 10 -58 10 -51 1 -103 23 -75 33 7 2 -4 8
-24 12 -21 4 -44 3 -55 -4 -14 -8 -15 -11 -3 -11 9 -1 5 -5 -8 -10 -23 -10
-62 5 -62 24 0 4 -6 3 -13 -3 -22 -18 -243 -29 -290 -15 -35 11 -10 29 43 32
38 2 50 6 40 12 -13 8 -12 10 2 10 9 0 18 -5 20 -11 5 -16 98 -31 114 -18 7 6
22 8 32 5 29 -9 55 3 42 19 -16 19 5 28 23 10 23 -22 37 -18 37 10 0 18 4 23
16 18 9 -3 14 -13 11 -24z m-793 -27 c-24 -6 -43 16 -24 28 11 7 19 5 28 -8
11 -14 10 -18 -4 -20z m-2370 13 c21 -16 21 -17 -11 -34 -44 -23 -81 0 -53 34
16 19 39 19 64 0z m2111 -11 c19 -21 25 -23 25 -10 0 9 8 16 18 17 129 8 130
8 136 -17 5 -19 13 -24 39 -24 18 0 42 7 53 15 25 19 74 19 88 -1 9 -12 17
-13 39 -5 21 8 34 8 50 -1 21 -11 19 -12 -22 -20 -24 -4 -51 -3 -61 2 -10 5
-20 6 -24 3 -3 -3 -16 2 -28 13 -16 14 -20 15 -16 4 8 -22 -17 -53 -44 -56
-13 -2 -17 0 -10 2 6 3 12 10 12 16 0 7 -22 9 -62 5 -69 -6 -125 6 -78 16 14
4 34 8 45 10 11 2 -11 7 -48 12 -45 5 -72 4 -79 -3 -6 -6 -17 -8 -24 -5 -8 3
-14 0 -14 -6 0 -17 -27 -13 -34 5 -9 25 -7 54 4 54 6 0 22 -12 35 -26z m4719
7 c3 -5 -1 -14 -10 -21 -12 -11 -12 -15 -2 -21 21 -14 31 -10 24 7 -5 14 -4
15 8 5 8 -7 12 -19 9 -27 -3 -9 2 -14 15 -14 11 0 27 -3 36 -6 28 -11 9 -20
-33 -16 -29 3 -42 9 -46 23 -7 21 -18 24 -45 9 -13 -7 -21 -6 -30 5 -15 18 -4
56 15 49 7 -3 16 -1 20 5 8 13 32 14 39 2z m-6420 -10 c7 -11 -22 -23 -36 -15
-6 4 -5 10 3 15 18 11 26 11 33 0z m194 -1 c8 -1 0 -19 -12 -23 -18 -7 -96 13
-96 25 0 7 63 6 108 -2z m116 4 c22 -8 10 -24 -19 -24 -25 0 -39 12 -28 24 8
8 27 8 47 0z m6560 -19 c23 -35 21 -38 -26 -30 -47 8 -80 27 -38 23 19 -2 25
2 24 15 -2 25 21 21 40 -8z m145 -10 c41 -9 30 -33 -12 -27 -46 6 -59 19 -44
43 9 15 13 16 19 5 5 -8 21 -17 37 -21z m271 15 c0 -11 -4 -20 -10 -20 -5 0
-10 9 -10 20 0 11 5 20 10 20 6 0 10 -9 10 -20z m-4980 -1 c57 3 46 -8 -26
-25 -41 -9 -62 -10 -80 -2 -22 10 -22 12 -6 24 10 8 27 11 42 8 14 -4 45 -6
70 -5z m4300 -9 c0 -11 -12 -16 -43 -18 -53 -3 -87 5 -87 21 0 8 20 12 65 12
52 0 65 -3 65 -15z m-7656 1 c3 -5 -13 -9 -36 -9 -30 -1 -38 2 -28 8 19 12 57
13 64 1z m406 -1 c0 -5 -24 -10 -52 -10 -38 0 -49 3 -38 10 20 13 90 13 90 0z
m3830 -34 c0 -20 18 -30 33 -18 16 12 67 21 67 12 0 -12 -27 -31 -57 -39 -19
-5 -27 -13 -25 -25 3 -16 -2 -17 -40 -11 -57 9 -68 22 -28 32 43 11 49 30 14
43 -26 10 -26 11 -8 29 15 14 21 15 31 5 7 -7 13 -19 13 -28z m-4564 25 c-9
-14 -71 -20 -112 -11 -27 6 -41 5 -46 -3 -4 -6 -10 -8 -15 -4 -4 5 -1 12 6 16
18 12 174 14 167 2z m2064 -1 c0 -5 -10 -10 -22 -10 -19 0 -20 2 -8 10 19 13
30 13 30 0z m6053 -6 c-2 -7 -11 -10 -19 -7 -10 4 -14 -3 -14 -23 0 -34 -12
-24 -16 13 -3 25 0 28 25 29 20 1 28 -3 24 -12z m-4959 -20 c27 -10 18 -21
-14 -16 -16 2 -27 8 -24 13 6 11 16 11 38 3z m1026 -14 c0 -22 -25 -18 -34 6
-3 9 1 14 14 14 13 0 20 -7 20 -20z m3868 -4 c2 -3 -7 -8 -22 -12 -30 -7 -79
3 -72 15 6 8 85 6 94 -3z m-5268 -6 c0 -5 -9 -10 -21 -10 -11 0 -17 5 -14 10
3 6 13 10 21 10 8 0 14 -4 14 -10z m4965 -41 l2 -34 -59 -2 c-38 -1 -58 3 -58
10 0 12 45 37 66 37 6 0 15 7 18 16 10 27 30 10 31 -27z m-3859 24 c-10 -10
-86 -11 -80 -1 3 5 24 8 46 8 23 0 38 -3 34 -7z m65 -4 c-16 -6 -28 -6 -35 1
-7 7 1 10 25 9 32 0 33 -1 10 -10z m-4002 -15 c2 -2 -12 -4 -31 -4 -20 0 -50
-3 -67 -6 -19 -4 -31 -2 -31 4 0 18 110 23 129 6z m4399 -6 c-7 -20 -58 -23
-58 -4 0 11 10 16 31 16 20 0 29 -4 27 -12z m-1148 -15 c-14 -3 -29 -9 -34
-14 -13 -12 -26 -12 -26 0 0 11 25 19 60 18 l25 0 -25 -4z m2434 -78 c-4 -9 4
-15 23 -18 21 -3 18 -4 -13 -6 -46 -1 -67 21 -36 38 20 12 33 5 26 -14z m664
8 c-2 -9 -10 -18 -18 -20 -12 -4 -13 -3 -1 5 7 5 10 15 7 21 -4 6 -2 11 4 11
6 0 10 -8 8 -17z m-1464 -2 c8 -12 -12 -18 -49 -15 -16 1 -36 3 -43 3 -7 1
-10 6 -7 11 8 12 92 13 99 1z m169 -6 c-1 -5 -12 -11 -24 -13 -31 -5 -71 7
-63 19 8 13 90 7 87 -6z m207 5 c13 -9 13 -11 0 -20 -22 -15 -86 -12 -99 4
-10 12 -7 15 16 19 51 7 68 7 83 -3z m904 4 c30 -12 16 -24 -26 -24 -40 1 -42
2 -24 15 22 17 27 18 50 9z m-759 -14 c-45 -11 -95 -11 -95 0 0 6 27 9 63 9
49 -1 56 -3 32 -9z m215 0 c0 -12 -67 -12 -95 0 -14 6 -4 9 38 9 32 1 57 -3
57 -9z m1240 -5 c-10 -12 -9 -16 4 -21 22 -8 89 5 98 19 5 9 10 9 20 -1 22
-22 -6 -32 -100 -35 -68 -1 -92 1 -92 11 0 6 11 12 24 12 13 0 26 7 30 15 3 8
11 15 17 15 8 0 8 -4 -1 -15z m900 5 c23 -7 23 -8 -10 -11 -92 -7 -110 -6
-110 1 0 17 79 23 120 10z m-598 -30 l33 -20 -37 0 c-20 0 -39 -4 -42 -8 -3
-4 -24 -7 -48 -7 -44 2 -51 13 -26 42 16 20 84 15 120 -7z m308 5 c0 -8 -4
-15 -9 -15 -13 0 -22 16 -14 24 11 11 23 6 23 -9z m-113 -1 c-10 -11 -97 -13
-97 -3 0 5 23 9 52 9 28 0 49 -3 45 -6z m-856 -41 c-34 -14 -72 -10 -55 6 13
12 45 18 69 12 17 -4 14 -7 -14 -18z m-1511 -3 c-20 -13 -60 -13 -60 0 0 6 17
10 38 10 27 0 33 -3 22 -10z m1331 -13 c-13 -13 -26 -3 -16 12 3 6 11 8 17 5
6 -4 6 -10 -1 -17z m469 5 c0 -4 14 -13 30 -19 17 -6 30 -17 30 -23 0 -10 -3
-10 -15 0 -11 9 -15 10 -15 1 0 -8 -6 -7 -16 3 -8 9 -20 16 -25 16 -5 0 -9 7
-9 15 0 8 5 15 10 15 6 0 10 -4 10 -8z m361 -35 c-13 -13 -26 -3 -16 12 3 6
11 8 17 5 6 -4 6 -10 -1 -17z m99 14 c0 -5 9 -11 20 -14 20 -5 37 -33 27 -44
-4 -3 -30 -1 -59 5 -32 6 -57 7 -62 1 -14 -13 -23 -11 -23 6 0 8 9 15 19 15
11 0 16 5 13 10 -3 6 -3 15 0 20 8 12 65 13 65 1z m105 -1 c17 -7 14 -9 -13
-9 -20 -1 -31 3 -27 9 7 12 13 12 40 0z m-285 -26 c0 -15 -12 -16 -50 -4 -23
7 -23 8 -3 9 12 1 25 6 28 11 8 13 25 3 25 -16z m290 -118 c0 -8 -4 -17 -9
-20 -10 -7 -23 19 -14 28 11 11 23 6 23 -8z m-523 -108 c-3 -10 0 -18 6 -18 6
0 8 -2 5 -5 -3 -4 -18 -3 -33 1 -26 6 -27 8 -11 20 11 8 13 14 6 19 -5 3 -8
11 -4 16 9 16 36 -12 31 -33z m-127 2 c0 -34 -6 -37 -32 -13 -28 25 -22 35 25
42 4 0 7 -12 7 -29z m-1970 -75 c0 -17 -2 -18 -25 -9 -13 5 -14 8 -3 15 19 13
28 11 28 -6z m1867 -45 c-12 -30 -8 -40 15 -44 32 -4 38 -16 18 -36 -29 -29
-37 -25 -45 21 -4 23 -16 50 -26 60 -14 14 -16 21 -7 23 36 12 44 13 50 10 3
-2 1 -17 -5 -34z m-67 -45 c0 -8 -4 -15 -10 -15 -5 0 -10 7 -10 15 0 8 5 15
10 15 6 0 10 -7 10 -15z m-54 -21 c-11 -8 -27 -13 -35 -13 -11 1 -10 3 3 6 15
4 16 7 5 15 -11 8 -10 9 3 4 10 -3 20 -1 24 5 3 6 9 7 12 4 4 -4 -2 -13 -12
-21z m-2001 -233 c8 -14 -12 -23 -36 -16 -17 6 -19 9 -8 16 18 11 36 11 44 0z
m865 -17 c0 -9 -5 -14 -12 -12 -18 6 -21 28 -4 28 9 0 16 -7 16 -16z m-1080
-25 c0 -10 -16 -11 -48 -2 -15 3 -19 8 -12 13 14 9 60 1 60 -11z m359 -38
c-15 -5 -22 6 -14 19 6 9 10 9 16 -1 5 -8 4 -15 -2 -18z m451 -16 c7 -8 16
-13 20 -10 9 5 20 -18 20 -43 0 -13 -2 -12 -14 3 -14 19 -15 19 -33 2 -29 -25
-48 -21 -50 11 -2 46 31 68 57 37z m1013 -101 c8 -9 -15 -44 -29 -44 -14 0
-26 28 -18 41 6 10 37 12 47 3z m119 -9 c7 -9 19 -22 26 -31 15 -16 9 -44 -8
-44 -6 0 -16 14 -21 30 -6 17 -17 30 -25 30 -8 0 -14 7 -14 15 0 20 26 19 42
0z m-1633 -30 c7 3 8 0 5 -10 -5 -11 -10 -13 -19 -5 -9 8 -15 8 -20 0 -3 -6
-11 -8 -16 -4 -6 4 -6 11 2 20 9 11 15 11 25 3 7 -6 18 -8 23 -4z m77 -22
c-11 -11 -17 4 -9 23 7 18 8 18 11 1 2 -10 1 -21 -2 -24z m-214 2 c0 -5 -5
-11 -11 -13 -6 -2 -11 4 -11 13 0 9 5 15 11 13 6 -2 11 -8 11 -13z m-326 -20
c16 -12 17 -14 2 -15 -9 0 -18 -5 -20 -11 -2 -7 -12 -7 -33 1 -29 11 -29 12
-11 26 25 18 37 18 62 -1z m212 6 c12 -7 12 -12 1 -30 -13 -20 -39 -29 -39
-13 0 4 -3 17 -6 30 -5 17 -2 22 12 22 11 0 25 -4 32 -9z m1527 -81 c10 -17
-37 -50 -56 -40 -10 6 -21 5 -28 -3 -10 -9 -10 -6 0 15 6 15 19 29 28 31 30 8
50 7 56 -3z m-1460 -53 c24 -3 22 -4 -12 -6 -34 -1 -43 3 -43 15 0 12 3 14 13
6 6 -6 26 -12 42 -15z m185 11 c0 -17 93 -15 98 1 5 15 32 14 32 -1 -1 -34
-36 -55 -99 -60 -69 -5 -78 2 -67 47 6 25 36 36 36 13z m-83 -52 c-4 -13 -82
-21 -106 -10 -12 5 -6 10 23 19 45 13 89 8 83 -9z m621 6 c10 -7 8 -12 -6 -25
-23 -21 -52 -13 -52 14 0 20 33 26 58 11z m-320 -19 c-2 -9 -8 -18 -15 -20 -7
-3 -9 3 -6 16 6 25 26 28 21 4z m1202 -33 c0 -5 -7 -10 -15 -10 -8 0 -15 5
-15 10 0 6 7 10 15 10 8 0 15 -4 15 -10z m-569 -35 c4 -3 6 -12 3 -19 -4 -9
-21 -14 -52 -13 -26 0 -62 -3 -80 -7 -21 -5 -38 -4 -47 4 -8 7 -23 9 -37 4
-21 -6 -21 -5 -9 10 11 14 25 15 71 10 32 -3 65 -2 74 3 19 10 65 15 77 8z
m-691 -38 c0 -12 -9 -28 -20 -35 -18 -11 -22 -10 -29 10 -7 18 -5 24 8 26 9 2
20 8 26 13 13 13 15 12 15 -14z m-270 -7 c-20 -13 -50 -13 -50 0 0 6 15 10 33
10 24 0 28 -3 17 -10z m-651 -69 c-15 -5 -22 6 -14 19 6 9 10 9 16 -1 5 -8 4
-15 -2 -18z m1801 -17 c0 -17 -22 -14 -28 4 -2 7 3 12 12 12 9 0 16 -7 16 -16z
m855 -54 c-3 -5 3 -10 14 -10 12 0 21 -4 21 -10 0 -5 -6 -10 -12 -10 -9 0 -10
-3 -2 -8 10 -6 11 -41 2 -45 -2 -1 -18 -10 -37 -21 -27 -15 -35 -16 -42 -5 -5
8 -4 15 1 17 6 2 3 16 -5 32 -21 40 -19 47 13 58 36 14 55 14 47 2z m-355 -29
c7 -14 7 -22 -1 -26 -6 -4 -8 -13 -5 -20 2 -7 -2 -16 -10 -19 -8 -3 -13 -2
-10 3 3 5 -1 14 -9 21 -16 13 -20 42 -8 53 12 13 32 7 43 -12z m-626 -67 c20
-8 11 -24 -15 -24 -10 0 -19 7 -19 15 0 16 9 19 34 9z m-850 -20 c32 -12 13
-54 -24 -54 -16 0 -23 42 -9 51 17 11 14 10 33 3z m1136 -3 c0 -5 -7 -11 -15
-15 -15 -5 -20 5 -8 17 9 10 23 9 23 -2z m-1600 -20 c0 -5 12 -12 26 -15 38
-10 21 -20 -21 -12 -34 7 -51 36 -20 36 8 0 15 -4 15 -9z m320 -46 c0 -19 -16
-19 -24 0 -3 9 0 15 9 15 8 0 15 -7 15 -15z"/>
<path d="M7765 8320 c-4 -6 11 -10 41 -10 54 0 55 4 2 14 -21 4 -39 2 -43 -4z"/>
<path d="M7548 8313 c12 -2 30 -2 40 0 9 3 -1 5 -23 4 -22 0 -30 -2 -17 -4z"/>
<path d="M2898 2648 c9 -9 15 -9 24 0 9 9 7 12 -12 12 -19 0 -21 -3 -12 -12z"/>
<path d="M12015 2401 c-22 -3 -35 -9 -30 -13 17 -10 129 -2 133 11 4 12 -33
13 -103 2z"/>
<path d="M8410 5979 c0 -10 6 -20 13 -22 10 -4 10 -6 0 -6 -10 -1 -13 -59 -13
-256 0 -226 2 -255 16 -255 9 0 14 -6 11 -12 -2 -7 -10 -12 -16 -10 -6 1 -11
-5 -11 -13 0 -15 4 -16 105 -20 88 -3 262 13 311 30 129 44 184 122 191 276 5
83 3 101 -16 135 -26 49 -38 64 -76 90 -63 43 -207 68 -437 77 -68 2 -78 0
-78 -14z"/>
<path d="M12740 6450 c0 -5 7 -10 15 -10 8 0 15 5 15 10 0 6 -7 10 -15 10 -8
0 -15 -4 -15 -10z"/>
<path d="M12765 6400 c-15 -6 -11 -7 18 -7 20 1 37 5 37 9 0 10 -29 9 -55 -2z"/>
<path d="M11220 6221 c0 -12 5 -21 10 -21 6 0 10 6 10 14 0 8 -4 18 -10 21 -5
3 -10 -3 -10 -14z"/>
<path d="M12090 6035 c0 -8 5 -15 10 -15 6 0 10 7 10 15 0 8 -4 15 -10 15 -5
0 -10 -7 -10 -15z"/>
<path d="M11950 5861 c-12 -24 -13 -31 -2 -31 5 0 14 11 20 25 14 29 -2 34
-18 6z"/>
<path d="M10175 5512 c-38 -105 -138 -355 -166 -416 -6 -13 -9 -28 -6 -33 4
-5 93 -11 199 -12 106 -1 203 -5 216 -8 28 -7 28 4 -2 64 -14 26 -44 91 -67
143 -70 159 -136 297 -147 304 -5 3 -17 -16 -27 -42z"/>
<path d="M12235 5237 c-4 -10 -5 -21 -1 -24 10 -10 18 4 13 24 -4 17 -4 17
-12 0z"/>
<path d="M12340 5092 c0 -5 7 -16 16 -23 14 -12 16 -11 13 5 -4 20 -29 35 -29
18z"/>
<path d="M12259 4718 c-1 -7 -3 -23 -4 -35 -2 -25 2 -28 23 -14 9 5 11 17 6
34 -6 28 -23 37 -25 15z"/>
<path d="M12456 4641 c-3 -5 13 -11 37 -13 47 -5 59 -1 37 12 -19 12 -67 13
-74 1z"/>
<path d="M12526 4552 c12 -9 24 -24 27 -32 3 -9 6 -4 6 11 1 16 -6 29 -15 33
-30 11 -39 6 -18 -12z"/>
<path d="M2793 5998 c-3 -6 -7 -133 -10 -284 l-4 -274 84 0 c254 0 389 58 437
187 63 168 -30 337 -200 366 -76 13 -299 16 -307 5z"/>
<path d="M3660 4760 c13 -23 20 -26 20 -6 0 8 -7 16 -15 20 -13 4 -14 2 -5
-14z"/>
<path d="M3721 4686 c7 -15 15 -23 17 -16 3 7 -3 19 -13 28 -15 16 -16 15 -4
-12z"/>
<path d="M3760 4642 c0 -10 26 -34 50 -47 8 -5 2 5 -15 23 -32 35 -35 36 -35
24z"/>
<path d="M3840 4562 c0 -5 7 -15 15 -22 8 -7 15 -8 15 -2 0 5 -7 15 -15 22 -8
7 -15 8 -15 2z"/>
<path d="M3900 4495 c0 -3 23 -28 50 -57 28 -28 50 -46 50 -38 0 7 -21 33 -46
57 -45 42 -54 48 -54 38z"/>
<path d="M4020 4382 c0 -4 9 -18 20 -32 13 -17 20 -20 20 -10 0 9 -9 23 -20
33 -11 9 -20 13 -20 9z"/>
<path d="M4785 6417 c-4 -10 -5 -21 -1 -24 10 -10 18 4 13 24 -4 17 -4 17 -12
0z"/>
<path d="M4820 5966 c-36 -7 -74 -17 -85 -21 -41 -15 -110 -48 -115 -54 -3 -3
-21 -15 -40 -25 -19 -11 -42 -26 -51 -35 -9 -9 -27 -25 -40 -37 -101 -87 -153
-202 -178 -386 -8 -55 -7 -93 0 -130 6 -29 15 -72 19 -96 4 -24 12 -48 18 -54
7 -7 12 -19 12 -28 0 -10 14 -36 30 -58 17 -23 30 -45 30 -49 0 -14 104 -110
164 -151 32 -23 74 -46 95 -53 20 -7 38 -15 41 -19 14 -18 145 -42 227 -41
161 1 308 65 412 176 69 74 86 102 141 230 40 94 46 330 11 420 -49 125 -117
216 -213 289 -148 111 -316 154 -478 122z m281 -189 c-28 -57 -68 -168 -92
-252 -11 -38 -23 -78 -26 -87 -6 -19 21 -26 32 -8 3 5 26 8 51 5 58 -5 74 2
74 30 0 27 15 41 26 24 4 -7 10 -26 14 -43 5 -25 10 -30 28 -28 19 3 22 -1 22
-35 0 -40 14 -63 37 -63 7 0 13 6 13 14 0 8 15 25 33 37 17 13 43 33 56 46 26
25 46 29 57 11 5 -7 -19 -36 -59 -75 -37 -34 -67 -66 -67 -70 0 -5 -16 -21
-35 -36 -30 -24 -39 -26 -51 -16 -8 7 -13 18 -10 25 8 20 -54 74 -73 65 -9 -5
-21 -7 -27 -4 -9 3 -59 -18 -124 -52 -22 -11 -43 -69 -60 -165 -20 -107 -50
-221 -66 -252 -11 -21 -21 -28 -37 -26 -19 3 -22 9 -21 42 1 21 6 41 12 45 6
3 14 19 18 35 4 17 13 41 20 55 18 34 17 82 -2 150 -19 67 -53 110 -102 126
-47 17 -51 36 -9 55 46 21 45 48 -1 98 -83 90 -131 158 -122 173 8 11 13 12
29 2 19 -12 61 -7 61 7 0 4 -7 21 -15 36 -23 44 -18 68 20 107 42 44 83 49
115 15 30 -32 25 -54 -26 -105 -37 -38 -44 -52 -42 -77 3 -26 7 -31 27 -28 14
1 28 -3 33 -10 6 -10 14 -6 31 14 21 25 25 27 43 14 18 -13 24 -11 62 26 23
22 42 48 42 58 0 10 5 22 11 25 5 4 15 17 20 28 5 12 18 36 29 52 11 17 23 38
26 48 4 9 13 17 20 17 8 0 15 6 15 13 1 6 3 4 6 -6 2 -9 -5 -36 -16 -60z"/>
<path d="M8057 1918 c-7 -4 4 -8 25 -8 20 0 40 5 43 10 7 12 -49 10 -68 -2z"/>
<path d="M6080 1875 c0 -8 7 -15 15 -15 8 0 15 7 15 15 0 8 -7 15 -15 15 -8 0
-15 -7 -15 -15z"/>
<path d="M8580 1861 c0 -20 17 -37 27 -28 7 8 -7 47 -18 47 -5 0 -9 -9 -9 -19z"/>
<path d="M6157 1864 c-12 -12 3 -22 23 -17 11 3 17 9 14 14 -6 10 -28 12 -37
3z"/>
<path d="M7707 1864 c-4 -4 -7 -17 -7 -28 0 -19 1 -19 17 -3 12 11 14 20 7 27
-6 6 -13 7 -17 4z"/>
<path d="M8092 1863 c-20 -3 -32 -9 -29 -16 4 -12 11 -12 72 -3 17 3 43 5 59
5 16 1 27 3 25 5 -8 7 -94 13 -127 9z"/>
<path d="M7970 1850 c20 -13 50 -13 50 0 0 6 -15 10 -32 10 -25 0 -29 -3 -18
-10z"/>
<path d="M8295 1850 c3 -5 15 -10 26 -10 10 0 19 5 19 10 0 6 -12 10 -26 10
-14 0 -23 -4 -19 -10z"/>
<path d="M6775 1839 c-10 -14 -1 -21 19 -13 9 3 13 10 10 15 -7 12 -21 11 -29
-2z"/>
<path d="M7154 1820 c1 -16 5 -29 9 -27 5 1 8 6 8 10 -1 4 -1 16 -1 27 0 11
-4 20 -9 20 -4 0 -8 -13 -7 -30z"/>
<path d="M7345 1798 c-20 -19 -20 -19 20 -16 41 3 50 17 18 29 -11 4 -25 -1
-38 -13z"/>
<path d="M7217 1795 c-7 -6 -18 -10 -25 -7 -6 2 -12 -4 -12 -13 0 -12 5 -15
18 -10 9 4 32 11 50 17 17 5 32 10 32 12 0 11 -53 12 -63 1z"/>
<path d="M8033 1787 c-25 -11 -30 -32 -10 -40 7 -3 27 3 46 12 32 17 32 17 9
28 -16 7 -30 7 -45 0z"/>
<path d="M6769 1779 c-10 -6 -3 -9 20 -9 19 0 31 3 27 7 -10 11 -32 12 -47 2z"/>
<path d="M7830 1775 c-11 -13 -8 -15 18 -15 34 0 50 15 26 24 -23 9 -30 8 -44
-9z"/>
<path d="M8190 1399 c0 -23 24 -24 60 -4 28 16 29 16 -22 20 -32 3 -38 1 -38
-16z"/>
<path d="M8290 1290 c0 -20 5 -30 15 -30 10 0 15 10 15 30 0 20 -5 30 -15 30
-10 0 -15 -10 -15 -30z"/>
<path d="M8096 1261 c-17 -18 -17 -20 2 -30 26 -14 62 -3 62 19 0 16 -18 30
-39 30 -4 0 -16 -9 -25 -19z"/>
<path d="M7780 1066 c0 -2 7 -19 14 -38 l15 -35 97 3 c94 4 135 17 115 37 -11
11 -70 17 -158 16 -38 0 -63 4 -63 10 0 6 -4 11 -10 11 -5 0 -10 -2 -10 -4z"/>
<path d="M8071 1021 c-7 -5 -10 -14 -7 -20 11 -17 22 -13 23 9 2 23 2 23 -16
11z"/>
<path d="M8157 881 c3 -12 9 -21 14 -21 14 0 11 16 -5 29 -12 10 -13 8 -9 -8z"/>
<path d="M7440 855 c-14 -8 -31 -14 -38 -15 -13 0 -42 -23 -42 -34 0 -2 15 0
33 5 17 6 42 12 55 13 32 5 46 20 30 34 -9 7 -20 7 -38 -3z"/>
<path d="M7563 858 c-9 -10 -6 -16 13 -25 27 -12 30 -6 11 21 -11 15 -15 15
-24 4z"/>
<path d="M7819 783 c-1 -5 -1 -11 0 -15 0 -5 -3 -8 -9 -8 -5 0 -7 -7 -4 -15 4
-8 15 -15 25 -15 14 0 19 7 19 30 0 20 -5 30 -15 30 -8 0 -16 -3 -16 -7z"/>
<path d="M7872 728 c6 -18 28 -21 28 -4 0 9 -7 16 -16 16 -9 0 -14 -5 -12 -12z"/>
<path d="M7638 664 c-4 -3 -14 -7 -25 -8 -22 -3 -24 -28 -3 -32 8 -1 22 -5 31
-8 23 -10 45 19 29 39 -13 16 -23 19 -32 9z"/>
<path d="M8118 626 c-21 -5 -38 -13 -38 -18 0 -4 -13 -8 -30 -8 -16 0 -30 -3
-30 -7 0 -17 18 -35 28 -29 6 3 29 2 51 -3 54 -12 76 3 64 45 -8 28 -9 29 -45
20z"/>
<path d="M7467 558 c-6 -19 4 -49 14 -42 12 7 12 41 0 48 -5 4 -11 0 -14 -6z"/>
<path d="M7520 551 c0 -14 37 -23 61 -16 17 6 19 9 8 16 -19 12 -69 11 -69 0z"/>
<path d="M7922 348 c6 -18 28 -21 28 -4 0 9 -7 16 -16 16 -9 0 -14 -5 -12 -12z"/>
<path d="M7884 75 c-3 -8 -3 -19 1 -25 3 -5 1 -10 -4 -10 -6 0 -11 -9 -11 -20
0 -29 37 -27 43 3 l4 22 2 -22 c2 -33 17 -28 30 9 10 28 9 35 -6 45 -23 17
-52 16 -59 -2z"/>
</g>
</svg>
